<?xml version="1.0" standalone="no"?>
<!DOCTYPE svg PUBLIC "-//W3C//DTD SVG 20010904//EN"
 "http://www.w3.org/TR/2001/REC-SVG-20010904/DTD/svg10.dtd">
<svg version="1.0" xmlns="http://www.w3.org/2000/svg"
 width="1600.000000pt" height="1600.000000pt" viewBox="0 0 1600.000000 1600.000000"
 preserveAspectRatio="xMidYMid meet">
<metadata>
Created by potrace 1.11, written by Peter Selinger 2001-2013
</metadata>
<g transform="translate(0.000000,1600.000000) scale(0.100000,-0.100000)"
fill="#000000" stroke="none">
<path d="M10947 12984 c-1 -1 -40 -5 -87 -8 -47 -3 -94 -8 -105 -10 -11 -2
-46 -7 -79 -11 -157 -19 -463 -91 -525 -124 -11 -7 -21 -10 -21 -7 0 13 -342
-140 -348 -155 -2 -5 -9 -9 -14 -9 -30 0 -338 -212 -338 -232 0 -5 -4 -7 -9
-4 -8 5 -199 -177 -271 -259 -73 -83 -110 -132 -103 -138 3 -4 2 -7 -4 -7 -11
0 -86 -106 -155 -219 -41 -69 -152 -293 -183 -371 -10 -25 -23 -58 -30 -75
-31 -73 -108 -320 -120 -386 -2 -12 -7 -29 -10 -39 -6 -18 -9 -35 -20 -90 -5
-27 -12 -60 -20 -100 -9 -48 -17 -95 -20 -135 -3 -22 -6 -49 -9 -60 -17 -79
-20 -418 -22 -2535 -1 -1306 -4 -2388 -7 -2405 -16 -93 -75 -271 -102 -305 -6
-8 -23 -35 -38 -60 -43 -75 -138 -176 -232 -247 -61 -47 -177 -103 -267 -129
-50 -16 -62 -18 -123 -30 -51 -10 -216 -11 -305 -2 -167 16 -325 53 -475 111
-44 17 -82 32 -85 32 -3 0 -15 6 -27 13 -13 7 -23 9 -23 5 0 -4 -4 -3 -8 2 -4
6 -36 25 -72 44 -129 68 -291 184 -371 266 -21 21 -39 35 -39 30 0 -5 -11 7
-26 28 -14 21 -30 35 -36 31 -6 -4 -8 -3 -5 3 4 6 -3 19 -14 29 -29 26 -106
125 -160 204 -47 71 -59 90 -91 151 -11 21 -24 39 -30 39 -5 0 -6 5 -3 10 4 6
3 16 -3 23 -10 13 -105 250 -107 267 -2 14 -27 117 -32 130 -4 8 -5 19 -4 23
1 5 -3 25 -8 45 -32 117 -35 473 -6 612 3 14 8 41 11 60 15 94 70 272 111 360
14 30 26 61 26 68 0 6 4 12 8 12 4 0 12 12 18 28 21 55 114 209 136 224 5 4 7
8 2 8 -4 0 1 8 10 19 10 10 28 31 40 47 25 34 51 65 98 115 19 20 31 40 27 45
-4 4 -2 4 4 1 12 -7 46 28 36 38 -4 4 -2 5 4 3 7 -1 31 15 55 37 24 22 64 56
89 74 25 19 50 39 55 45 6 6 27 20 48 31 20 11 37 23 37 27 0 5 7 8 15 8 8 0
15 4 15 9 0 5 10 11 23 15 12 3 31 13 43 23 11 10 26 19 34 21 8 2 18 8 21 14
3 5 8 9 10 7 6 -3 53 13 59 20 3 4 34 18 70 31 36 13 68 29 72 34 4 6 8 8 8 4
0 -4 24 1 53 11 28 11 68 23 87 27 19 4 42 9 50 11 8 2 28 5 44 8 50 7 43 18
-9 11 -94 -12 -291 -53 -310 -64 -5 -3 -16 -7 -25 -8 -42 -4 -318 -98 -330
-113 -3 -3 -14 -8 -25 -9 -25 -5 -159 -72 -163 -83 -2 -4 -9 -6 -16 -3 -7 3
-19 -2 -26 -11 -7 -8 -18 -15 -26 -15 -7 0 -19 -6 -26 -12 -7 -7 -31 -22 -53
-33 -48 -24 -129 -77 -133 -87 -2 -5 -10 -8 -18 -8 -8 0 -14 -3 -14 -8 0 -4
-16 -16 -35 -26 -19 -11 -35 -23 -35 -28 0 -4 -7 -8 -15 -8 -8 0 -15 -7 -15
-15 0 -8 -4 -14 -8 -13 -13 4 -101 -66 -102 -80 0 -7 -4 -11 -9 -8 -14 9 -254
-230 -341 -340 -116 -147 -233 -319 -233 -341 0 -7 -3 -13 -7 -13 -4 0 -15
-17 -26 -37 -10 -21 -21 -40 -24 -43 -13 -13 -40 -70 -33 -70 4 0 3 -4 -2 -8
-12 -8 -46 -76 -75 -152 -12 -30 -26 -61 -32 -67 -6 -7 -8 -13 -4 -13 3 0 -1
-17 -10 -37 -15 -36 -61 -178 -69 -212 -2 -9 -13 -52 -24 -96 -20 -79 -32
-136 -37 -185 -1 -14 -3 -26 -4 -27 -4 -5 -6 -18 -14 -93 -4 -41 -10 -88 -12
-105 -6 -35 -5 -395 0 -440 2 -16 7 -61 10 -100 4 -38 12 -90 17 -115 5 -25
11 -58 14 -75 10 -69 36 -178 46 -191 5 -6 6 -14 3 -17 -3 -3 1 -25 9 -49 8
-24 23 -69 33 -100 10 -32 21 -58 24 -58 4 0 7 -6 8 -12 2 -27 9 -47 46 -136
21 -51 43 -92 48 -92 5 0 7 -4 3 -9 -3 -5 2 -17 11 -25 8 -9 13 -16 9 -16 -6
0 49 -105 65 -125 5 -5 8 -12 7 -15 0 -3 12 -24 26 -47 15 -24 27 -47 27 -53
0 -5 3 -10 8 -10 4 0 20 -23 37 -50 16 -28 33 -50 37 -50 4 0 8 -5 8 -11 0 -6
10 -23 23 -38 12 -15 33 -43 47 -62 14 -19 43 -52 65 -74 22 -21 33 -35 25
-31 -8 5 1 -9 22 -30 96 -103 133 -139 140 -136 4 1 8 -5 8 -13 0 -8 7 -15 15
-15 8 0 15 -7 15 -15 0 -8 4 -15 8 -15 4 0 25 -16 45 -35 20 -19 37 -33 37
-30 0 3 13 -9 29 -25 15 -17 31 -30 35 -30 3 0 14 -8 24 -18 11 -9 32 -26 47
-37 16 -11 34 -25 41 -32 6 -7 18 -14 25 -15 8 -2 20 -11 27 -20 7 -10 20 -18
28 -18 8 0 14 -4 14 -10 0 -5 7 -10 15 -10 8 0 15 -4 15 -10 0 -5 5 -10 11
-10 5 0 26 -11 46 -25 20 -13 41 -21 46 -18 6 3 7 2 4 -3 -8 -13 210 -123 364
-185 53 -21 219 -77 249 -85 8 -2 49 -12 90 -23 41 -10 92 -22 114 -25 21 -4
41 -8 45 -10 3 -2 29 -6 56 -10 28 -3 59 -8 71 -10 131 -26 642 -27 734 -1 8
3 35 7 60 9 104 11 323 66 480 121 154 54 310 123 310 138 0 6 3 8 6 4 6 -6
29 6 154 76 81 45 190 120 190 130 0 6 3 8 6 4 7 -6 101 64 204 151 63 54 256
242 248 242 -3 0 11 17 31 38 55 59 81 89 81 95 0 3 10 17 23 30 12 14 45 58
72 98 28 41 53 76 58 77 4 2 7 8 7 13 0 6 11 26 25 46 13 20 21 41 18 46 -3 6
-1 7 5 3 9 -6 22 15 22 37 0 4 9 17 19 29 11 11 18 25 15 30 -3 4 -1 8 3 8 14
0 142 280 145 316 1 13 6 24 9 24 6 0 17 33 24 70 0 3 6 14 12 25 13 24 79
290 88 355 3 25 8 52 10 60 4 15 14 91 22 165 2 22 6 249 8 505 4 429 8 639
20 1110 3 96 7 265 10 375 5 201 11 399 20 705 2 91 7 262 10 380 3 118 8 265
9 325 2 61 6 261 10 445 3 184 8 360 11 390 3 30 7 186 10 345 5 264 15 484
31 686 l7 75 -61 17 c-40 11 -60 21 -57 29 3 7 7 47 10 88 6 98 13 164 21 220
3 25 8 64 10 88 1 24 5 55 9 70 3 15 7 47 10 71 2 24 7 51 9 60 3 9 8 36 11
61 3 25 7 52 10 60 2 8 7 29 10 45 9 52 13 70 41 181 15 60 27 116 28 124 1 9
5 20 8 25 3 6 20 57 38 115 18 58 36 109 41 115 5 5 9 15 9 23 0 13 10 38 70
167 15 33 29 65 30 70 2 6 8 15 12 20 16 19 78 127 78 136 0 5 5 9 10 9 6 0
10 5 10 11 0 14 97 134 160 198 61 61 166 137 218 156 35 13 31 14 -76 12 -63
-1 -114 -3 -115 -3z"/>
<path d="M7226 8431 c-3 -4 6 -6 19 -3 14 2 25 6 25 8 0 8 -39 4 -44 -5z"/>
</g>
</svg>
